<svg xmlns="http://www.w3.org/2000/svg" viewBox="0 0 180 180" aria-hidden="true">
  <g fill="none" stroke="#2c3538" stroke-width="4.5" stroke-linecap="round" stroke-linejoin="round" opacity=".22">
    <path d="M88 152c2-31 4-62-1-91-3-19-11-34-25-45" />
    <path d="M88 151c11-26 29-45 55-58" />
    <path d="M88 105c-22 1-43 11-61 30 25-3 45-10 61-30Z" />
    <path d="M86 77c-19-5-38-1-57 15 22 5 42 1 57-15Z" />
    <path d="M80 51c-13-10-30-14-51-10 17 14 34 17 51 10Z" />
    <path d="M94 123c18-19 41-30 70-31-19 22-42 33-70 31Z" />
    <path d="M93 94c13-19 31-31 55-35-13 22-31 34-55 35Z" />
    <path d="M91 66c8-18 22-31 42-38-7 21-21 34-42 38Z" />
    <path d="M88 152c-15-20-31-33-49-39" />
    <path d="M92 133c15 3 30 9 44 19" />
  </g>
</svg>
